<svg xmlns="http://www.w3.org/2000/svg" fill="none" viewBox="0 0 100 24"><path fill="#E5BF00" fill-rule="evenodd" d="M12.29 13.795c0 1.035-.2 2.052-.718 2.956a4.901 4.901 0 0 1-2.022 1.942c-.925.483-1.946.674-2.983.674-1.113 0-2.172-.255-3.119-.848-.926-.58-1.604-1.39-2.06-2.382l-.138-.3 3.326-1.41.13.28c.18.38.426.713.746.987.318.272.703.37 1.115.37.575 0 1.278-.103 1.613-.631.315-.497.445-1.052.445-1.637V5.027h3.664v8.768Zm6.47-3.702 1.059 1.888 2.122.424-1.468 1.591.253 2.15-1.966-.904-1.967.905.253-2.15-1.468-1.592 2.122-.424 1.06-1.888Zm49.798 0 1.06 1.888 2.122.424-1.468 1.591.252 2.15-1.966-.904-1.966.905.252-2.15-1.466-1.592 2.122-.424 1.058-1.888Zm-12.547 0 1.06 1.888 2.122.424-1.468 1.591.253 2.15-1.967-.904-1.966.905.253-2.15-1.468-1.592 2.122-.424 1.06-1.888Zm20.054.862h-1.274V8.032h1.274V5.025h3.454v3.007h2.093v2.923h-2.093v4.096c0 .325.044.675.194.968.126.246.544.273.78.273.23 0 .46-.01.689-.036l.354-.04v3.04l-.285.032c-.434.048-.873.078-1.31.078-.668 0-1.402-.039-2.05-.211-.547-.146-1.01-.432-1.346-.89-.378-.517-.48-1.2-.48-1.826v-5.484Zm-7.576 8.393a6.032 6.032 0 0 1-3.002-.774 5.865 5.865 0 0 1-2.18-2.102 5.515 5.515 0 0 1-.807-2.906c0-1.036.27-2.001.807-2.887a5.87 5.87 0 0 1 2.18-2.102 6.032 6.032 0 0 1 3.002-.774 6.09 6.09 0 0 1 3.01.773 5.926 5.926 0 0 1 2.199 2.1c.542.886.817 1.851.817 2.89a5.47 5.47 0 0 1-.817 2.907 5.935 5.935 0 0 1-2.2 2.1 6.068 6.068 0 0 1-3.01.775ZM53.349 8.623c.251-.178.53-.321.798-.44a5.063 5.063 0 0 1 2.06-.417c1.05 0 2.067.22 2.971.77a5.101 5.101 0 0 1 1.936 2.098c.46.91.663 1.895.663 2.913 0 1.018-.204 2.001-.663 2.913a5.101 5.101 0 0 1-1.936 2.099c-.904.55-1.921.77-2.972.77-.7 0-1.4-.112-2.042-.4a4.213 4.213 0 0 1-.815-.475v3.234h-3.455V7.995h3.455v.628Zm-11.78 3.242 3.085-3.814h4.332l-4.488 5.2 4.62 5.85h-4.256l-2.597-3.248-.697.802V19.1h-3.492V5.025h3.493v6.84Zm-9.782 7.502a6.09 6.09 0 0 1-3.01-.773 5.92 5.92 0 0 1-2.2-2.1 5.47 5.47 0 0 1-.817-2.908c0-1.043.271-2.014.819-2.9a5.978 5.978 0 0 1 2.189-2.09 6.03 6.03 0 0 1 3-.774c1.125 0 2.19.264 3.158.834.975.574 1.719 1.386 2.259 2.378l.173.318-3.159 1.241-.138-.235c-.25-.428-.577-.804-1.008-1.056a2.494 2.494 0 0 0-1.285-.347c-.709 0-1.319.226-1.815.74-.507.524-.719 1.165-.719 1.89 0 .728.216 1.367.727 1.89.501.512 1.113.741 1.827.741 1.057 0 1.823-.474 2.371-1.37l.14-.229 2.987 1.176-.151.31c-1.078 2.21-2.906 3.264-5.348 3.264Zm-10.354-.895c-.251.178-.53.321-.798.44a5.063 5.063 0 0 1-2.06.417c-1.05 0-2.067-.22-2.971-.77a5.103 5.103 0 0 1-1.937-2.098c-.459-.91-.662-1.895-.662-2.913 0-1.018.203-2.001.662-2.913a5.096 5.096 0 0 1 1.937-2.099c.904-.55 1.922-.77 2.972-.77.7 0 1.4.112 2.042.4.288.13.565.285.815.475v-.646h3.454V19.1h-3.454v-.629Z" clip-rule="evenodd"/><path fill="#E5BF00" d="M96.815 9.995V8.656h-.477v-.272h1.277v.272h-.475v1.34h-.325Zm1.007 0V8.383h.489l.288 1.1.286-1.1h.49v1.612h-.302V8.727l-.319 1.268h-.313l-.315-1.268-.002 1.268h-.302Z"/><path fill="#FF3336" fill-rule="evenodd" d="M93.616 8.43A2.715 2.715 0 1 1 93.618 3a2.715 2.715 0 0 1-.002 5.43Z" clip-rule="evenodd"/><path fill="#FCFDFE" fill-rule="evenodd" d="m91.249 16.392 2.791-7.216a3.486 3.486 0 0 1-3.014-1.128L85.591 21.75h3.6l.262-.682-.011-.004 1.807-4.672Z" clip-rule="evenodd"/><path fill="#E5BF00" fill-rule="evenodd" d="m87.38 10.282-.894-2.25h-4.014l4.126 9.088c1.638-3.941 1.675-4.588.781-6.838Z" clip-rule="evenodd"/></svg>